# xmcd
#
# Track frame offsets:
#	150
#	27339
#	37702
#	52303
#	67532
#	83850
#	100606
#	117726
#	130652
#	147832
#	160831
#	177867
#
# Disc length: 2639 seconds
# Revision: 0
# Processed by: cddbd v1.5.2PL0 Copyright (c) Steve Scherf et al.
# Submitted via: dBpowerAMP V12.0
#
DISCID=960a4d0c
DTITLE=Little Black Train - Barn Dance
DYEAR=2012
DGENRE=Country
TTITLE0=Old Black Dog
TTITLE1=Satan Your Kingdom Must Come Down
TTITLE2=Barn Dances
TTITLE3=California Blues
TTITLE4=Fly Around Pretty Little Lost Girl
TTITLE5=Death Don't Have No Mercy
TTITLE6=Blues in the Bottle
TTITLE7=Goodbye Booze
TTITLE8=The Bravest Cowboy
TTITLE9=The Coolin - Jamie Allen
TTITLE10=Ain't Gonna Work Tomorrow
TTITLE11=Campbell's Tater Patch
EXTD=
EXTT0=
EXTT1=
EXTT2=
EXTT3=
EXTT4=
EXTT5=
EXTT6=
EXTT7=
EXTT8=
EXTT9=
EXTT10=
EXTT11=
PLAYORDER=
